<?xml version="1.0" standalone="no"?><!DOCTYPE svg PUBLIC "-//W3C//DTD SVG 1.1//EN" "http://www.w3.org/Graphics/SVG/1.1/DTD/svg11.dtd"><svg t="1774440704902" class="icon" viewBox="0 0 1024 1024" version="1.1" xmlns="http://www.w3.org/2000/svg" p-id="10556" xmlns:xlink="http://www.w3.org/1999/xlink" width="200" height="200"><path d="M907.1 959.6H119c-14.1 0-25.5-11.4-25.5-25.5s11.4-25.5 25.5-25.5h788.1c14.1 0 25.5 11.4 25.5 25.5s-11.4 25.5-25.5 25.5zM899.8 850.4H427.1c-14.1 0-25.5-11.4-25.5-25.5s11.4-25.5 25.5-25.5h472.7c14.1 0 25.5 11.4 25.5 25.5s-11.4 25.5-25.5 25.5zM659.9 229.3l-111-77.2c-7.9-5.5-9.9-16.4-4.4-24.3L583.3 72c5.5-7.9 16.4-9.9 24.3-4.4l111 77.2c7.9 5.5 9.9 16.4 4.4 24.3L684.1 225c-5.5 7.9-16.3 9.8-24.2 4.3zM626.3 277.1l-113-78.5c-7.4-5.1-17.5-3.3-22.6 4.1L198.1 623.5c-7.4 10.6-12.2 22.7-14.2 35.5l-22.4 145.2c-1.9 12.2 11.3 21.1 21.9 14.8l127.8-75.4c10.5-6.2 19.5-14.5 26.5-24.5l292.7-419.4c5.1-7.4 3.3-17.5-4.1-22.6z" fill="#424242" p-id="10557"></path></svg>