<?xml version="1.0" standalone="no"?><!DOCTYPE svg PUBLIC "-//W3C//DTD SVG 1.1//EN" "http://www.w3.org/Graphics/SVG/1.1/DTD/svg11.dtd"><svg t="1774440693332" class="icon" viewBox="0 0 1024 1024" version="1.1" xmlns="http://www.w3.org/2000/svg" p-id="9474" xmlns:xlink="http://www.w3.org/1999/xlink" width="200" height="200"><path d="M683.88 356.58H335.62a44.05 44.05 0 0 1-44-44v-140a44.05 44.05 0 0 1 44-44h348.26a44.05 44.05 0 0 1 44 44v140a44.05 44.05 0 0 1-44 44z m-328.26-64h308.26v-100H355.62z" fill="#1AD8E2" p-id="9475"></path><path d="M319.06 510.04m32 0l212.73 0q32 0 32 32l0 0q0 32-32 32l-212.73 0q-32 0-32-32l0 0q0-32 32-32Z" fill="#2C77E5" p-id="9476"></path><path d="M319.06 641.01m32 0l324.25 0q32 0 32 32l0 0q0 32-32 32l-324.25 0q-32 0-32-32l0 0q0-32 32-32Z" fill="#2C77E5" p-id="9477"></path><path d="M787.36 224h-60.08v64h40.08v575.71H253.68V288h39.56v-64h-59.56a44.05 44.05 0 0 0-44 44v615.71a44.05 44.05 0 0 0 44 44h553.68a44.05 44.05 0 0 0 44-44V268a44.05 44.05 0 0 0-44-44z" fill="#2C77E5" p-id="9478"></path></svg>