<?xml version="1.0" standalone="no"?><!DOCTYPE svg PUBLIC "-//W3C//DTD SVG 1.1//EN" "http://www.w3.org/Graphics/SVG/1.1/DTD/svg11.dtd"><svg t="1774440660188" class="icon" viewBox="0 0 1024 1024" version="1.1" xmlns="http://www.w3.org/2000/svg" p-id="8387" xmlns:xlink="http://www.w3.org/1999/xlink" width="200" height="200"><path d="M927.636211 2.209684H96.363789C58.098526 2.209684 27.109053 38.373053 27.109053 82.997895v646.090105c0 44.624842 30.989474 80.788211 69.254736 80.788211h381.03579v80.734315H338.782316c-19.132632 0-34.654316 18.108632-34.654316 40.421053 0 22.258526 15.521684 40.367158 34.654316 40.367158h346.327579c19.132632 0 34.654316-18.108632 34.654316-40.421053 0-22.258526-15.521684-40.367158-34.654316-40.367158h-138.509474v-80.734315h381.03579c38.211368 0 69.200842-36.163368 69.200842-80.788211V82.997895c0-44.624842-30.989474-80.788211-69.254737-80.788211z m0 80.788211v524.934737H96.363789V82.997895h831.272422zM96.363789 736.525474v-69.578106h831.272422v69.578106H96.363789z" fill="#E05541" p-id="8388"></path><path d="M200.272842 527.198316a29.426526 29.426526 0 0 0 19.024842-6.898527L408.090947 372.951579l154.462316 108.274526a30.558316 30.558316 0 0 0 37.726316 0l242.526316-201.943579c11.264-7.760842 17.785263-22.312421 16.869052-37.510737-0.916211-15.252211-9.054316-28.564211-21.180631-34.492631a30.827789 30.827789 0 0 0-35.893895 6.575158l-221.345684 184.589473L427.493053 290.492632a30.504421 30.504421 0 0 0-36.702316 0L182.972632 452.069053c-13.365895 9.269895-19.833263 27.701895-15.791158 45.217684 4.042105 17.515789 17.569684 29.696 33.091368 29.911579z" fill="#E05541" p-id="8389"></path></svg>